<svg id="visual" viewBox="0 0 960 540" width="960" height="540" xmlns="http://www.w3.org/2000/svg"
    xmlns:xlink="http://www.w3.org/1999/xlink" version="1.1">
    <rect x="0" y="0" width="960" height="540" fill="#24273a"></rect>
    <defs>
        <linearGradient id="grad1_0" x1="43.8%" y1="0%" x2="100%" y2="100%">
            <stop offset="14.444444444444446%" stop-color="#24273a" stop-opacity="1"></stop>
            <stop offset="85.55555555555554%" stop-color="#24273a" stop-opacity="1"></stop>
        </linearGradient>
    </defs>
    <defs>
        <linearGradient id="grad2_0" x1="0%" y1="0%" x2="56.3%" y2="100%">
            <stop offset="14.444444444444446%" stop-color="#24273a" stop-opacity="1"></stop>
            <stop offset="85.55555555555554%" stop-color="#24273a" stop-opacity="1"></stop>
        </linearGradient>
    </defs>
    <g transform="translate(960, 0)">
        <path
            d="M0 324C-45.1 322 -90.1 320 -124 299.3C-157.9 278.7 -180.6 239.5 -207.9 207.9C-235.2 176.3 -267.2 152.4 -287.3 119C-307.5 85.6 -315.7 42.8 -324 0L0 0Z"
            fill="#c6a0f6"></path>
    </g>
    <g transform="translate(0, 540)">
        <path
            d="M0 -324C38.1 -307 76.3 -290 113.7 -274.4C151 -258.8 187.7 -244.7 220.6 -220.6C253.5 -196.5 282.7 -162.4 299.3 -124C315.9 -85.6 320 -42.8 324 0L0 0Z"
            fill="#c6a0f6"></path>
    </g>
</svg>